<svg xmlns="http://www.w3.org/2000/svg" viewBox="0 0 60 30" role="img"><defs></defs><rect width="60" height="30" fill="#fff"/><rect width="15" height="30" fill="#D52B1E"/><rect x="45" width="15" height="30" fill="#D52B1E"/><path d="M30 6.2 l1.5 2.9 c.3.5.7.4 1.1.2l1.1-.6 -.8 3.9c-.2.8.3 1 .8.5l2-2 .6 1.3c.2.4.5.4.9.4l2.6-.5 -.8 2.6c-.1.4-.1.6.2.8l1 .5 -5.1 4.1c-.5.4-.4.6-.2 1.1l.5 1.4 -4.7-.8c-.4-.1-.6.1-.6.5l.2 4.6h-.9l.2-4.6c0-.4-.2-.6-.6-.5l-4.7.8 .5-1.4c.2-.5.3-.7-.2-1.1l-5.1-4.1 1-.5c.3-.2.3-.4.2-.8l-.8-2.6 2.6.5c.4.1.7 0 .9-.4l.6-1.3 2 2c.5.5 1 .3.8-.5l-.8-3.9 1.1.6c.4.2.8.3 1.1-.2z" fill="#D52B1E"/></svg>